<svg width="124" height="25" viewBox="0 0 124 25" fill="none" xmlns="http://www.w3.org/2000/svg">
<path d="M7.04 1.08C8.816 1.08 10.368 1.44 11.696 2.16C13.04 2.864 14.072 3.856 14.792 5.136C15.512 6.416 15.872 7.88 15.872 9.528C15.872 11.16 15.504 12.616 14.768 13.896C14.048 15.176 13.016 16.184 11.672 16.92C10.344 17.64 8.8 18 7.04 18H0.344V1.08H7.04ZM6.68 13.848C8.056 13.848 9.136 13.472 9.92 12.72C10.704 11.968 11.096 10.904 11.096 9.528C11.096 8.136 10.704 7.064 9.92 6.312C9.136 5.544 8.056 5.16 6.68 5.16H5.048V13.848H6.68ZM22.6004 1.08V10.896C22.6004 11.808 22.8084 12.512 23.2244 13.008C23.6564 13.504 24.3044 13.752 25.1684 13.752C26.0324 13.752 26.6804 13.504 27.1124 13.008C27.5604 12.496 27.7844 11.792 27.7844 10.896V1.08H32.4884V10.896C32.4884 12.448 32.1604 13.776 31.5044 14.88C30.8484 15.968 29.9524 16.792 28.8164 17.352C27.6964 17.896 26.4484 18.168 25.0724 18.168C23.6964 18.168 22.4644 17.896 21.3764 17.352C20.3044 16.792 19.4564 15.968 18.8324 14.88C18.2244 13.792 17.9204 12.464 17.9204 10.896V1.08H22.6004ZM34.5024 9.504C34.5024 7.84 34.8464 6.36 35.5344 5.064C36.2384 3.752 37.2304 2.736 38.5104 2.016C39.7904 1.28 41.2624 0.912 42.9264 0.912C45.0384 0.912 46.8144 1.48 48.2544 2.616C49.6944 3.736 50.6224 5.264 51.0384 7.2H45.9744C45.6704 6.56 45.2464 6.072 44.7024 5.736C44.1744 5.4 43.5584 5.232 42.8544 5.232C41.7664 5.232 40.8944 5.624 40.2384 6.408C39.5984 7.176 39.2784 8.208 39.2784 9.504C39.2784 10.816 39.5984 11.864 40.2384 12.648C40.8944 13.416 41.7664 13.8 42.8544 13.8C43.5584 13.8 44.1744 13.632 44.7024 13.296C45.2464 12.96 45.6704 12.472 45.9744 11.832H51.0384C50.6224 13.768 49.6944 15.304 48.2544 16.44C46.8144 17.56 45.0384 18.12 42.9264 18.12C41.2624 18.12 39.7904 17.76 38.5104 17.04C37.2304 16.304 36.2384 15.288 35.5344 13.992C34.8464 12.68 34.5024 11.184 34.5024 9.504ZM63.2739 18L57.9699 10.584V18H53.2659V1.08H57.9699V8.376L63.2259 1.08H68.6499L62.4339 9.288L68.9619 18H63.2739Z" fill="#F1D302"/>
<path d="M86.9617 6.168C86.9617 7.56 86.4817 8.72 85.5217 9.648C84.5777 10.56 83.1297 11.016 81.1777 11.016H77.9617V18H75.7777V1.272H81.1777C83.0657 1.272 84.4977 1.728 85.4737 2.64C86.4657 3.552 86.9617 4.728 86.9617 6.168ZM81.1777 9.216C82.3937 9.216 83.2897 8.952 83.8657 8.424C84.4417 7.896 84.7297 7.144 84.7297 6.168C84.7297 4.104 83.5457 3.072 81.1777 3.072H77.9617V9.216H81.1777ZM91.8601 0.24V18H89.6761V0.24H91.8601ZM94.7664 11.376C94.7664 10.032 95.0384 8.856 95.5824 7.848C96.1264 6.824 96.8704 6.032 97.8144 5.472C98.7744 4.912 99.8384 4.632 101.006 4.632C102.158 4.632 103.158 4.88 104.006 5.376C104.854 5.872 105.486 6.496 105.902 7.248V4.848H108.11V18H105.902V15.552C105.47 16.32 104.822 16.96 103.958 17.472C103.11 17.968 102.118 18.216 100.982 18.216C99.8144 18.216 98.7584 17.928 97.8144 17.352C96.8704 16.776 96.1264 15.968 95.5824 14.928C95.0384 13.888 94.7664 12.704 94.7664 11.376ZM105.902 11.4C105.902 10.408 105.702 9.544 105.302 8.808C104.902 8.072 104.358 7.512 103.67 7.128C102.998 6.728 102.254 6.528 101.438 6.528C100.622 6.528 99.8784 6.72 99.2064 7.104C98.5344 7.488 97.9984 8.048 97.5984 8.784C97.1984 9.52 96.9984 10.384 96.9984 11.376C96.9984 12.384 97.1984 13.264 97.5984 14.016C97.9984 14.752 98.5344 15.32 99.2064 15.72C99.8784 16.104 100.622 16.296 101.438 16.296C102.254 16.296 102.998 16.104 103.67 15.72C104.358 15.32 104.902 14.752 105.302 14.016C105.702 13.264 105.902 12.392 105.902 11.4ZM123.129 4.848L115.209 24.192H112.953L115.545 17.856L110.241 4.848H112.665L116.793 15.504L120.873 4.848H123.129Z" fill="white"/>
</svg>
